<svg width="53" height="71" viewBox="0 0 53 71" fill="none" xmlns="http://www.w3.org/2000/svg">
<path d="M31.8216 18.008L36.3981 0.921125C29.4832 -0.932872 22.1173 0.0358843 15.9206 3.61026C9.72392 7.18463 5.19749 13.0807 3.34349 19.9956C1.48949 26.9105 2.45825 34.2764 6.03262 40.4731C9.45667 46.4025 14.9853 50.7786 21.4993 52.7829L16.9228 69.8698C23.8377 71.7238 31.2036 70.755 37.4002 67.1806C43.5969 63.6063 48.1234 57.7102 49.9774 50.7953C51.8314 43.8804 50.8626 36.5145 47.2882 30.3178C43.8642 24.3884 38.3356 19.9956 31.8216 18.008ZM21.2154 24.7893C21.7999 22.6179 23.2197 20.7639 25.1572 19.6448C26.8275 18.6761 28.765 18.3253 30.6524 18.6093L26.293 34.8777C24.5225 34.1762 23.0192 32.9067 22.0505 31.2365C20.9481 29.2823 20.6475 26.9606 21.2154 24.7893ZM32.1055 46.0017C31.5209 48.173 30.1012 50.027 28.1637 51.1461C26.4934 52.1148 24.5559 52.4656 22.6685 52.1816L27.0279 35.9132C28.7984 36.6147 30.3016 37.8842 31.2704 39.5544C32.3727 41.5086 32.6734 43.8303 32.1055 46.0017Z" fill="#2B428B"/>
<path d="M9.89953 66.802C14.5495 66.3933 17.9876 62.2925 17.5789 57.6425C17.1702 52.9926 13.0694 49.5544 8.41944 49.9631C3.76951 50.3719 0.331328 54.4727 0.740042 59.1226C1.14876 63.7725 5.2496 67.2107 9.89953 66.802Z" fill="#2B428B"/>
<path d="M44.551 20.2429C49.2173 20.1306 52.909 16.2568 52.7967 11.5906C52.6844 6.92429 48.8106 3.23257 44.1443 3.34487C39.4781 3.45718 35.7864 7.33097 35.8987 11.9972C36.011 16.6635 39.8848 20.3552 44.551 20.2429Z" fill="#2B428B"/>
</svg>
