<?xml version="1.0" standalone="no"?>
<!DOCTYPE svg PUBLIC "-//W3C//DTD SVG 20010904//EN"
 "http://www.w3.org/TR/2001/REC-SVG-20010904/DTD/svg10.dtd">
<svg version="1.0" xmlns="http://www.w3.org/2000/svg"
 width="1136.000000pt" height="1136.000000pt" viewBox="0 0 1136.000000 1136.000000"
 preserveAspectRatio="xMidYMid meet">
<metadata>
Created by potrace 1.14, written by Peter Selinger 2001-2017
</metadata>
<g transform="translate(0.000000,1136.000000) scale(0.100000,-0.100000)"
fill="#000000" stroke="none">
<path d="M5898 11355 c-2 -2 -47 -6 -101 -10 -54 -3 -108 -8 -120 -11 -12 -2
-44 -6 -72 -9 -27 -2 -59 -6 -70 -8 -11 -3 -41 -7 -66 -11 -25 -4 -59 -9 -75
-12 -16 -3 -38 -7 -49 -9 -156 -24 -557 -135 -700 -194 -11 -5 -47 -19 -80
-31 -33 -13 -88 -36 -123 -51 -35 -16 -65 -29 -68 -29 -9 0 -201 -95 -226
-113 -16 -10 -28 -16 -28 -13 0 12 -381 -220 -388 -236 -2 -5 -9 -8 -16 -8 -7
0 -21 -9 -31 -20 -10 -11 -24 -20 -32 -20 -7 0 -16 -7 -19 -15 -4 -8 -10 -15
-15 -15 -6 0 -15 -4 -22 -10 -65 -54 -100 -80 -105 -80 -4 0 -23 -15 -42 -33
-19 -18 -44 -39 -56 -47 -74 -51 -370 -338 -489 -474 -33 -38 -65 -74 -71 -80
-5 -6 -41 -51 -79 -101 -38 -49 -79 -103 -92 -120 -43 -56 -53 -70 -121 -175
-140 -216 -234 -387 -345 -630 -38 -84 -131 -324 -142 -370 -1 -3 -5 -13 -9
-22 -4 -9 -9 -25 -11 -35 -2 -10 -4 -19 -5 -20 -3 -3 -3 -3 -15 -48 -4 -16
-10 -34 -14 -40 -3 -5 -7 -19 -8 -30 -2 -11 -11 -45 -20 -75 -18 -60 -18 -61
-28 -105 -3 -16 -7 -34 -9 -40 -8 -30 -28 -127 -30 -152 -2 -15 -5 -28 -6 -28
-2 0 -9 -34 -16 -85 -3 -25 -7 -57 -10 -71 -8 -52 -16 -114 -19 -144 -12 -126
-17 -188 -20 -240 -5 -81 -5 -426 -1 -495 10 -131 17 -207 32 -320 4 -30 8
-62 9 -70 1 -8 5 -28 8 -45 4 -16 9 -46 11 -65 5 -36 19 -108 35 -172 5 -21 7
-38 4 -38 -3 0 0 -7 7 -15 7 -8 10 -15 7 -15 -3 0 -1 -15 3 -32 22 -87 53
-196 81 -280 16 -51 32 -100 34 -108 5 -20 89 -239 108 -281 102 -228 172
-365 272 -531 30 -50 55 -94 55 -99 0 -4 4 -9 8 -11 4 -1 35 -43 67 -93 33
-49 62 -92 65 -95 3 -3 39 -50 80 -105 41 -55 77 -102 81 -105 3 -3 34 -39 69
-80 171 -200 399 -419 595 -571 39 -29 72 -56 75 -59 3 -3 61 -45 130 -93 69
-48 131 -91 138 -97 6 -6 12 -8 12 -5 0 3 15 -5 33 -19 19 -15 39 -26 45 -26
7 0 12 -4 12 -9 0 -5 8 -11 18 -15 9 -3 35 -17 57 -30 69 -42 87 -51 220 -118
140 -71 161 -80 275 -128 74 -31 251 -98 280 -106 8 -2 38 -11 66 -21 55 -19
54 -18 34 -93 -7 -25 -14 -52 -16 -60 -2 -8 -11 -42 -20 -75 -9 -33 -18 -67
-20 -75 -4 -18 -24 -91 -28 -105 -17 -59 -29 -104 -32 -122 -2 -12 -9 -35 -15
-50 -6 -16 -10 -28 -9 -28 1 0 -1 -7 -3 -15 -9 -27 -36 -134 -40 -155 -2 -11
-7 -27 -10 -35 -6 -14 -47 -172 -51 -195 -1 -5 -5 -16 -9 -23 -5 -6 -5 -12 -1
-12 3 0 1 -7 -6 -15 -7 -8 -10 -15 -7 -15 3 0 1 -15 -4 -32 -11 -38 -18 -62
-25 -97 -3 -14 -7 -29 -10 -33 -3 -5 -8 -24 -11 -41 -3 -18 -9 -39 -14 -48 -5
-9 -10 -31 -11 -48 -1 -17 -5 -31 -9 -31 -3 0 -9 -19 -13 -42 -4 -24 -13 -62
-21 -85 -8 -24 -17 -55 -20 -70 -3 -16 -12 -53 -20 -83 -23 -79 -56 -202 -60
-220 -2 -8 -13 -51 -25 -95 -12 -44 -23 -87 -25 -95 -2 -8 -16 -58 -31 -110
-36 -129 -43 -160 -37 -160 3 0 0 -6 -6 -13 -6 -8 -12 -22 -14 -33 -10 -58
-31 -134 -36 -134 -4 0 -7 -8 -7 -17 0 -30 -38 -168 -48 -174 -5 -4 1 -12 13
-18 11 -7 21 -9 21 -6 0 2 17 -2 38 -9 20 -8 64 -20 97 -27 33 -7 65 -14 70
-15 6 -1 26 -5 45 -8 36 -6 66 -12 110 -22 14 -2 41 -7 60 -9 19 -2 51 -7 70
-10 19 -3 53 -8 75 -10 22 -2 63 -6 91 -9 28 -4 84 -9 125 -12 99 -8 519 -12
519 -5 0 4 28 6 63 7 62 1 181 10 240 19 18 3 53 7 79 9 26 3 51 7 55 9 5 3
31 7 58 11 48 6 72 10 125 21 14 3 36 8 50 11 14 3 35 7 48 10 45 9 178 43
252 64 41 11 82 22 90 25 8 2 40 13 72 23 31 11 59 18 62 15 3 -4 6 -1 6 5 0
7 7 12 15 12 9 0 55 16 103 35 48 20 94 37 103 40 9 2 39 15 68 29 28 15 52
26 53 25 2 -1 48 20 103 47 55 26 103 47 108 46 4 -1 7 2 7 8 0 5 4 10 9 10 7
0 139 69 199 105 10 6 40 23 67 39 27 16 54 33 60 38 5 4 55 38 110 75 156
103 326 235 438 339 26 24 49 44 51 44 8 0 240 235 306 309 36 40 70 79 75 85
10 11 75 91 105 130 8 10 23 27 33 38 9 10 17 22 17 27 0 5 11 19 25 32 13 13
25 29 25 36 0 6 3 13 8 15 11 5 82 107 82 118 0 6 5 10 10 10 6 0 10 6 10 14
0 8 4 16 8 18 5 2 28 36 53 76 55 92 56 94 100 172 85 153 99 180 92 180 -4 0
-3 4 4 8 9 6 51 88 58 112 0 3 12 30 26 60 14 30 34 75 44 100 10 25 27 64 37
87 10 23 18 46 18 50 0 5 13 43 30 86 16 43 32 88 34 100 2 12 12 42 21 67 9
25 18 54 20 65 4 21 53 200 55 200 1 0 3 12 5 28 2 15 9 53 16 85 7 31 14 64
15 72 2 8 6 31 10 50 7 39 8 42 23 150 57 394 58 852 1 1220 -5 36 -12 79 -14
95 -2 17 -5 30 -6 30 -2 0 -7 26 -14 74 -3 21 -13 70 -22 108 -9 37 -17 77
-19 88 -1 11 -3 20 -4 20 -2 0 -4 9 -6 20 -13 70 -116 404 -135 437 -6 10 -10
26 -10 36 0 10 -4 22 -9 28 -5 5 -18 35 -30 67 -11 32 -30 75 -40 95 -10 20
-19 39 -19 42 -1 3 -15 35 -31 72 -17 37 -31 72 -31 77 0 5 -3 11 -7 13 -5 2
-22 30 -39 63 -47 94 -93 176 -120 220 -14 22 -27 48 -31 58 -3 9 -9 17 -14
17 -5 0 -9 7 -9 15 0 8 -4 15 -10 15 -5 0 -10 5 -10 10 0 9 -103 168 -137 210
-6 8 -33 44 -60 80 -27 36 -56 74 -65 85 -9 11 -33 40 -53 65 -81 100 -157
182 -291 315 -145 145 -155 154 -264 244 -36 29 -66 57 -68 62 -2 5 -8 9 -13
9 -8 0 -29 15 -63 45 -69 62 -452 315 -476 315 -5 0 -10 5 -10 11 0 5 -4 8 -9
5 -5 -3 -14 1 -21 9 -7 8 -16 15 -20 15 -4 0 -40 18 -80 40 -40 22 -79 40 -86
40 -8 0 -14 3 -14 8 0 4 -15 13 -32 21 -18 8 -58 26 -88 40 -30 14 -57 25 -60
26 -3 0 -32 13 -65 28 -33 16 -72 31 -87 34 -16 3 -28 9 -28 14 0 5 -8 9 -19
9 -10 0 -52 13 -92 29 -41 15 -94 34 -119 41 -25 8 -48 15 -52 17 -5 3 23 128
39 173 3 8 7 22 8 30 2 8 22 85 45 170 23 85 44 162 46 170 2 8 13 49 24 90
29 104 69 257 81 305 5 22 14 51 19 65 5 14 12 36 14 50 3 14 21 86 41 160 20
74 38 142 40 150 2 8 8 27 14 43 6 15 8 27 5 27 -2 0 0 8 5 18 5 9 12 31 15
47 3 17 17 73 31 125 14 52 28 102 30 110 2 8 4 15 5 15 1 0 3 9 5 19 2 11 6
29 9 40 3 12 6 26 7 31 1 6 6 21 11 35 5 14 12 36 14 50 3 14 14 57 26 95 12
39 22 79 24 90 1 11 3 21 4 23 2 1 4 7 5 12 1 6 3 11 4 13 2 1 5 13 7 27 3 14
13 54 23 90 10 36 33 119 50 185 17 66 36 134 42 152 5 18 12 40 14 50 2 10 6
30 10 45 8 30 -6 40 -71 52 -16 3 -56 12 -89 20 -33 8 -73 17 -90 19 -16 3
-52 10 -80 16 -27 6 -74 13 -103 16 -30 3 -57 7 -61 9 -8 5 -86 16 -151 21
-19 2 -35 4 -35 5 0 8 -668 23 -677 15z m414 -2967 c34 -8 40 22 -82 -433 -12
-44 -24 -91 -26 -104 -3 -14 -7 -28 -10 -33 -3 -4 -7 -16 -9 -25 -2 -10 -13
-54 -25 -98 -12 -44 -23 -91 -26 -104 -3 -14 -7 -28 -10 -33 -3 -5 -14 -44
-25 -86 -11 -42 -21 -84 -23 -92 -2 -8 -21 -76 -41 -150 -20 -74 -40 -151 -45
-170 -14 -58 -40 -154 -47 -170 -3 -8 -5 -18 -5 -22 1 -4 -5 -27 -13 -50 -7
-24 -16 -54 -19 -68 -5 -25 -47 -184 -101 -380 -3 -8 -9 -33 -15 -55 -6 -22
-12 -47 -15 -55 -11 -40 -57 -217 -60 -230 -2 -8 -15 -54 -29 -102 -13 -49
-21 -88 -18 -88 3 0 1 -5 -6 -12 -7 -7 -12 -20 -12 -30 0 -10 -2 -18 -5 -18
-13 0 -211 103 -217 113 -4 7 -8 8 -8 4 0 -4 -9 1 -20 11 -11 10 -32 25 -47
33 -58 30 -202 171 -313 306 -6 7 -10 14 -10 17 0 3 -13 25 -29 48 -56 83
-149 293 -165 373 -3 11 -22 103 -32 150 -10 49 -13 365 -4 365 5 0 7 6 4 13
-3 8 2 47 11 88 9 41 18 85 21 98 15 72 117 311 136 319 4 2 8 8 8 14 0 25
123 182 214 273 262 261 601 397 971 389 71 -2 138 -4 147 -6z m-514 -2787 c9
-5 40 -19 67 -32 167 -79 332 -212 466 -376 33 -39 59 -74 59 -77 0 -3 14 -25
31 -50 39 -59 101 -193 129 -281 13 -38 25 -77 28 -85 3 -8 6 -22 7 -30 0 -8
4 -28 8 -45 10 -47 16 -84 22 -160 4 -38 9 -73 11 -77 3 -5 0 -8 -7 -8 -8 0
-9 -3 0 -13 6 -8 9 -16 7 -18 -2 -2 -6 -48 -10 -103 -3 -54 -10 -115 -15 -135
-5 -20 -12 -53 -15 -73 -6 -42 -41 -149 -63 -190 -7 -15 -13 -30 -13 -33 0 -7
-52 -111 -79 -160 -21 -37 -78 -120 -105 -152 -36 -44 -187 -193 -221 -218
-22 -16 -42 -31 -45 -35 -35 -39 -312 -178 -390 -195 -8 -2 -55 -13 -104 -25
-49 -12 -119 -24 -155 -26 -74 -6 -243 -6 -281 0 -14 2 -33 4 -43 5 -18 1 -19
24 -4 61 3 8 16 53 27 100 12 47 30 116 41 154 12 38 23 77 25 87 2 11 6 27 8
37 4 14 73 273 132 492 14 52 20 74 29 110 2 8 4 15 6 15 1 0 3 9 5 20 4 26
17 76 49 185 9 30 18 64 20 75 4 19 48 185 81 305 16 55 33 121 39 150 2 8 4
15 5 15 1 0 3 7 5 15 2 8 11 42 20 75 9 33 18 67 20 75 2 8 13 49 24 90 19 69
119 442 125 465 1 6 6 25 10 43 8 34 15 38 44 23z"/>
<path d="M8488 10825 c-2 -2 -39 -5 -83 -9 -75 -6 -98 -9 -152 -21 -99 -22
-118 -28 -130 -38 -7 -5 -13 -7 -13 -4 0 14 -186 -69 -267 -120 -29 -18 -56
-33 -62 -33 -5 0 -11 -4 -13 -8 -1 -4 -21 -21 -43 -37 -86 -64 -206 -182 -263
-260 -4 -6 -19 -26 -34 -46 -85 -114 -189 -351 -213 -484 -4 -22 -9 -49 -12
-60 -23 -122 -23 -350 2 -465 3 -14 7 -38 10 -55 2 -16 13 -59 24 -94 12 -35
21 -68 21 -73 0 -15 88 -197 110 -229 12 -16 18 -29 15 -29 -4 0 0 -7 7 -15
24 -27 35 -41 39 -51 13 -35 194 -226 269 -284 63 -49 175 -120 208 -132 17
-7 32 -16 32 -20 0 -4 5 -8 10 -8 6 0 29 -9 53 -19 44 -20 140 -53 192 -67 17
-4 32 -8 35 -9 3 0 28 -5 55 -10 28 -4 57 -10 65 -12 30 -9 301 -10 352 -2
139 22 143 23 244 55 84 26 114 38 184 73 67 34 181 101 190 111 3 3 25 21 50
39 97 73 310 312 310 349 0 5 9 17 20 27 11 10 17 21 15 26 -3 4 1 13 8 21 22
22 98 205 112 272 3 10 9 33 14 50 5 17 12 49 15 71 4 22 9 58 13 80 9 49 8
297 -1 345 -3 19 -8 49 -10 65 -13 100 -82 295 -147 412 -75 136 -229 320
-324 388 -15 11 -38 30 -51 43 -13 13 -24 19 -24 15 0 -4 -4 -3 -8 2 -13 18
-95 68 -182 111 -124 61 -265 107 -365 119 -16 2 -30 4 -30 5 0 5 -242 19
-247 15z"/>
<path d="M2716 3363 c-2 -2 -44 -12 -92 -22 -103 -21 -264 -79 -344 -124 -30
-17 -70 -39 -89 -49 -19 -10 -37 -21 -40 -25 -3 -5 -26 -22 -51 -38 -24 -17
-77 -62 -117 -101 -41 -38 -76 -68 -78 -65 -3 2 -5 -1 -5 -8 0 -7 -14 -26 -30
-44 -95 -101 -225 -346 -267 -502 -13 -50 -25 -104 -28 -120 -1 -11 -6 -40
-10 -65 -9 -53 -9 -293 0 -364 5 -42 19 -107 41 -191 3 -11 6 -25 8 -32 1 -7
5 -16 9 -19 4 -4 7 -13 7 -19 0 -7 8 -30 17 -51 9 -22 17 -41 18 -44 2 -9 56
-114 77 -150 31 -53 101 -150 144 -199 71 -80 204 -201 223 -201 6 0 11 -4 11
-9 0 -5 15 -16 34 -25 19 -9 36 -20 38 -25 4 -12 229 -121 249 -121 9 0 19 -3
23 -7 3 -4 12 -8 19 -10 7 -1 48 -12 91 -23 171 -46 393 -56 556 -25 107 20
230 57 308 91 28 13 55 24 60 25 4 1 23 12 42 24 19 12 42 24 50 27 8 3 51 31
94 63 73 52 117 89 198 169 44 43 138 162 138 174 0 6 4 12 9 14 28 11 153
275 176 374 2 11 9 39 16 64 6 25 12 54 14 65 2 11 7 38 11 60 3 22 7 101 6
175 0 145 -4 191 -28 305 -11 53 -11 54 -14 60 -1 3 -3 8 -4 13 -12 45 -29 99
-34 107 -4 6 -7 12 -8 15 -7 39 -67 153 -130 250 -177 271 -429 458 -749 556
-44 13 -93 26 -110 29 -16 2 -41 7 -55 11 -27 7 -397 14 -404 7z"/>
</g>
</svg>
